<svg width="100" height="75" viewBox="0 0 100 75" fill="none" xmlns="http://www.w3.org/2000/svg">
<rect width="100" height="75" fill="white"/>
<path d="M32.7013 14.5455H38.5991L41.0195 24.4318H41.2241L46.9173 14.5455H52.815L49.9173 32H45.2809L46.9514 21.9091H46.815L41.2923 31.8636H38.4968L36.2809 21.8409H36.1445L34.44 32H29.8036L32.7013 14.5455ZM70.4698 23.5795C70.1516 25.4773 69.521 27.0682 68.5778 28.3523C67.6346 29.6364 66.4897 30.6051 65.1431 31.2585C63.7965 31.9119 62.3562 32.2386 60.8221 32.2386C59.1857 32.2386 57.7653 31.8835 56.5607 31.1733C55.3562 30.4631 54.4783 29.4233 53.9272 28.054C53.3761 26.6847 53.2653 25.0114 53.5948 23.0341C53.9016 21.1364 54.5266 19.5398 55.4698 18.2443C56.413 16.9489 57.5636 15.9688 58.9215 15.304C60.2795 14.6392 61.7312 14.3068 63.2766 14.3068C64.9016 14.3068 66.3136 14.6648 67.5124 15.3807C68.717 16.0966 69.592 17.1449 70.1374 18.5256C70.6886 19.9062 70.7994 21.5909 70.4698 23.5795ZM65.6971 23.0341C65.8562 22.0341 65.8675 21.1932 65.7312 20.5114C65.5948 19.8239 65.3079 19.3068 64.8704 18.9602C64.4329 18.608 63.8448 18.4318 63.1062 18.4318C62.2653 18.4318 61.521 18.6364 60.8732 19.0455C60.2255 19.4545 59.6886 20.0426 59.2624 20.8097C58.8363 21.5767 58.538 22.5 58.3675 23.5795C58.1857 24.5909 58.1687 25.4318 58.3164 26.1023C58.4698 26.7727 58.771 27.2756 59.2198 27.6108C59.6744 27.946 60.2653 28.1136 60.9925 28.1136C61.8221 28.1136 62.555 27.9148 63.1914 27.517C63.8335 27.1193 64.3647 26.5426 64.7852 25.7869C65.2113 25.0312 65.5153 24.1136 65.6971 23.0341ZM42.4631 50.0909H37.7244C37.7585 49.6875 37.7358 49.3239 37.6562 49C37.5767 48.6761 37.4403 48.3977 37.2472 48.1648C37.054 47.9261 36.8011 47.7443 36.4886 47.6193C36.1761 47.4943 35.804 47.4318 35.3722 47.4318C34.5426 47.4318 33.8011 47.6392 33.1477 48.054C32.4943 48.4631 31.9517 49.0511 31.5199 49.8182C31.0881 50.5795 30.7813 51.4886 30.5994 52.5455C30.4403 53.5682 30.4347 54.4176 30.5824 55.0938C30.7358 55.7699 31.0341 56.2756 31.4773 56.6108C31.9261 56.946 32.5085 57.1136 33.2244 57.1136C33.7017 57.1136 34.1392 57.0568 34.5369 56.9432C34.9403 56.8295 35.2983 56.6676 35.6108 56.4574C35.929 56.2415 36.1989 55.9858 36.4205 55.6903C36.6477 55.3892 36.821 55.0568 36.9403 54.6932H41.7131C41.5313 55.4318 41.2074 56.1875 40.7415 56.9602C40.2756 57.7273 39.6733 58.4347 38.9347 59.0824C38.196 59.7244 37.3267 60.2443 36.3267 60.642C35.3267 61.0398 34.2017 61.2386 32.9517 61.2386C31.3153 61.2386 29.9034 60.8807 28.7159 60.1648C27.5341 59.4489 26.6761 58.4034 26.142 57.0284C25.6136 55.6534 25.5085 53.9773 25.8267 52C26.1449 50.0909 26.7727 48.4915 27.7102 47.2017C28.6477 45.9119 29.7869 44.9403 31.1278 44.2869C32.4688 43.6335 33.8949 43.3068 35.4062 43.3068C36.5483 43.3068 37.571 43.4574 38.4744 43.7585C39.3835 44.0597 40.1477 44.5 40.767 45.0795C41.392 45.6534 41.8523 46.3608 42.1477 47.2017C42.4432 48.0426 42.5483 49.0057 42.4631 50.0909ZM46.8182 61H41.7045L50.3636 43.5455H56.8409L59.7045 61H54.5909L52.8864 48.3523H52.75L46.8182 61ZM47.0227 54.1136H56.6364L56.0227 57.6591H46.4091L47.0227 54.1136ZM72.0923 49C72.1435 48.4375 72.0071 47.9972 71.6832 47.679C71.3594 47.3551 70.8139 47.1932 70.0469 47.1932C69.5582 47.1932 69.1491 47.25 68.8196 47.3636C68.4957 47.4773 68.2429 47.6335 68.0611 47.8324C67.8849 48.0312 67.7741 48.2614 67.7287 48.5227C67.6776 48.7273 67.6804 48.9148 67.7372 49.0852C67.7997 49.25 67.9162 49.4006 68.0866 49.5369C68.2628 49.6733 68.4929 49.7955 68.777 49.9034C69.0668 50.0114 69.4105 50.108 69.8082 50.1932L71.1719 50.5C72.1037 50.7045 72.8849 50.9744 73.5156 51.3097C74.152 51.6392 74.652 52.0312 75.0156 52.4858C75.3793 52.9403 75.6179 53.4489 75.7315 54.0114C75.8509 54.5739 75.8537 55.1875 75.7401 55.8523C75.5469 57 75.1009 57.9716 74.402 58.767C73.7031 59.5625 72.7912 60.1676 71.6662 60.5824C70.5412 60.9972 69.2401 61.2045 67.7628 61.2045C66.2514 61.2045 64.9673 60.9801 63.9105 60.5312C62.8594 60.0767 62.098 59.3835 61.6264 58.4517C61.1605 57.5142 61.0469 56.3182 61.2855 54.8636H65.7855C65.7173 55.3977 65.7741 55.8466 65.956 56.2102C66.1378 56.5739 66.4304 56.8494 66.8338 57.0369C67.2372 57.2244 67.7401 57.3182 68.3423 57.3182C68.8537 57.3182 69.2912 57.2557 69.6548 57.1307C70.0185 57.0057 70.3054 56.8324 70.5156 56.6108C70.7259 56.3892 70.8537 56.1364 70.8991 55.8523C70.9446 55.5909 70.8991 55.358 70.7628 55.1534C70.6264 54.9489 70.3793 54.7642 70.0213 54.5994C69.6634 54.4347 69.1719 54.2841 68.5469 54.1477L66.8764 53.7727C65.3935 53.4318 64.2741 52.8693 63.5185 52.0852C62.7628 51.3011 62.4957 50.2273 62.7173 48.8636C62.8991 47.75 63.3565 46.7784 64.0895 45.9489C64.8281 45.1136 65.7656 44.4659 66.902 44.0057C68.044 43.5398 69.3082 43.3068 70.6946 43.3068C72.1037 43.3068 73.2827 43.5426 74.2315 44.0142C75.1861 44.4858 75.8707 45.1477 76.2855 46C76.706 46.8523 76.8196 47.8523 76.6264 49H72.0923Z" fill="black"/>
<line x1="25" y1="37.5" x2="74" y2="37.5" stroke="black"/>
<line x1="71" y1="23.5" x2="74" y2="23.5" stroke="black"/>
<line x1="22" y1="51.5" x2="25" y2="51.5" stroke="black"/>
</svg>
